<svg width="24" height="24" viewBox="0 0 24 24" fill="none" xmlns="http://www.w3.org/2000/svg">
<path d="M8 10.8H5.33333V13.2H8V10.8ZM13.3333 10.8H10.6667V13.2H13.3333V10.8ZM18.6667 10.8H16V13.2H18.6667V10.8ZM21.3333 2.4H20V0H17.3333V2.4H6.66667V0H4V2.4H2.66667C1.18667 2.4 0 3.48 0 4.8V21.6C0 22.2365 0.280951 22.847 0.781048 23.2971C1.28115 23.7471 1.95942 24 2.66667 24H21.3333C22.0406 24 22.7189 23.7471 23.219 23.2971C23.719 22.847 24 22.2365 24 21.6V4.8C24 4.16348 23.719 3.55303 23.219 3.10294C22.7189 2.65286 22.0406 2.4 21.3333 2.4ZM21.3333 21.6H2.66667V8.4H21.3333V21.6Z" fill="#A3A3A5" fill-opacity="0.75"/>
</svg>
