<svg width="329" height="155" viewBox="0 0 329 155" fill="none" xmlns="http://www.w3.org/2000/svg">
<rect width="329" height="155" rx="30" fill="url(#paint0_linear)"/>
<mask id="mask0" mask-type="alpha" maskUnits="userSpaceOnUse" x="0" y="0" width="329" height="155">
<rect width="329" height="155" rx="30" fill="white"/>
</mask>
<g mask="url(#mask0)">
<g filter="url(#filter0_d)">
<rect x="242" y="18" width="63" height="30" rx="8" fill="url(#paint1_linear)"/>
</g>
<path d="M255.821 28.242V38H254.547V33.576H249.577V38H248.303V28.242H249.577V32.526H254.547V28.242H255.821ZM261.543 38.126C260.824 38.126 260.171 37.9627 259.583 37.636C259.004 37.3093 258.547 36.8473 258.211 36.25C257.884 35.6433 257.721 34.9433 257.721 34.15C257.721 33.366 257.889 32.6753 258.225 32.078C258.57 31.4713 259.037 31.0093 259.625 30.692C260.213 30.3653 260.871 30.202 261.599 30.202C262.327 30.202 262.985 30.3653 263.573 30.692C264.161 31.0093 264.623 31.4667 264.959 32.064C265.304 32.6613 265.477 33.3567 265.477 34.15C265.477 34.9433 265.299 35.6433 264.945 36.25C264.599 36.8473 264.128 37.3093 263.531 37.636C262.933 37.9627 262.271 38.126 261.543 38.126ZM261.543 37.006C262 37.006 262.429 36.8987 262.831 36.684C263.232 36.4693 263.554 36.1473 263.797 35.718C264.049 35.2887 264.175 34.766 264.175 34.15C264.175 33.534 264.053 33.0113 263.811 32.582C263.568 32.1527 263.251 31.8353 262.859 31.63C262.467 31.4153 262.042 31.308 261.585 31.308C261.118 31.308 260.689 31.4153 260.297 31.63C259.914 31.8353 259.606 32.1527 259.373 32.582C259.139 33.0113 259.023 33.534 259.023 34.15C259.023 34.7753 259.135 35.3027 259.359 35.732C259.592 36.1613 259.9 36.4833 260.283 36.698C260.665 36.9033 261.085 37.006 261.543 37.006ZM268.626 27.64V38H267.352V27.64H268.626ZM271.655 29.082C271.412 29.082 271.207 28.998 271.039 28.83C270.871 28.662 270.787 28.4567 270.787 28.214C270.787 27.9713 270.871 27.766 271.039 27.598C271.207 27.43 271.412 27.346 271.655 27.346C271.888 27.346 272.084 27.43 272.243 27.598C272.411 27.766 272.495 27.9713 272.495 28.214C272.495 28.4567 272.411 28.662 272.243 28.83C272.084 28.998 271.888 29.082 271.655 29.082ZM272.271 30.328V38H270.997V30.328H272.271ZM274.166 34.136C274.166 33.352 274.325 32.666 274.642 32.078C274.96 31.4807 275.394 31.0187 275.944 30.692C276.504 30.3653 277.13 30.202 277.82 30.202C278.418 30.202 278.973 30.342 279.486 30.622C280 30.8927 280.392 31.252 280.662 31.7V27.64H281.95V38H280.662V36.558C280.41 37.0153 280.037 37.3933 279.542 37.692C279.048 37.9813 278.469 38.126 277.806 38.126C277.125 38.126 276.504 37.958 275.944 37.622C275.394 37.286 274.96 36.8147 274.642 36.208C274.325 35.6013 274.166 34.9107 274.166 34.136ZM280.662 34.15C280.662 33.5713 280.546 33.0673 280.312 32.638C280.079 32.2087 279.762 31.882 279.36 31.658C278.968 31.4247 278.534 31.308 278.058 31.308C277.582 31.308 277.148 31.42 276.756 31.644C276.364 31.868 276.052 32.1947 275.818 32.624C275.585 33.0533 275.468 33.5573 275.468 34.136C275.468 34.724 275.585 35.2373 275.818 35.676C276.052 36.1053 276.364 36.4367 276.756 36.67C277.148 36.894 277.582 37.006 278.058 37.006C278.534 37.006 278.968 36.894 279.36 36.67C279.762 36.4367 280.079 36.1053 280.312 35.676C280.546 35.2373 280.662 34.7287 280.662 34.15ZM283.827 34.136C283.827 33.352 283.986 32.666 284.303 32.078C284.621 31.4807 285.055 31.0187 285.605 30.692C286.165 30.3653 286.786 30.202 287.467 30.202C288.139 30.202 288.723 30.3467 289.217 30.636C289.712 30.9253 290.081 31.2893 290.323 31.728V30.328H291.611V38H290.323V36.572C290.071 37.02 289.693 37.3933 289.189 37.692C288.695 37.9813 288.116 38.126 287.453 38.126C286.772 38.126 286.156 37.958 285.605 37.622C285.055 37.286 284.621 36.8147 284.303 36.208C283.986 35.6013 283.827 34.9107 283.827 34.136ZM290.323 34.15C290.323 33.5713 290.207 33.0673 289.973 32.638C289.74 32.2087 289.423 31.882 289.021 31.658C288.629 31.4247 288.195 31.308 287.719 31.308C287.243 31.308 286.809 31.42 286.417 31.644C286.025 31.868 285.713 32.1947 285.479 32.624C285.246 33.0533 285.129 33.5573 285.129 34.136C285.129 34.724 285.246 35.2373 285.479 35.676C285.713 36.1053 286.025 36.4367 286.417 36.67C286.809 36.894 287.243 37.006 287.719 37.006C288.195 37.006 288.629 36.894 289.021 36.67C289.423 36.4367 289.74 36.1053 289.973 35.676C290.207 35.2373 290.323 34.7287 290.323 34.15ZM300.572 30.328L295.952 41.612H294.636L296.148 37.916L293.054 30.328H294.468L296.876 36.544L299.256 30.328H300.572Z" fill="#040415"/>
</g>
<defs>
<filter id="filter0_d" x="224" y="8" width="99" height="66" filterUnits="userSpaceOnUse" color-interpolation-filters="sRGB">
<feFlood flood-opacity="0" result="BackgroundImageFix"/>
<feColorMatrix in="SourceAlpha" type="matrix" values="0 0 0 0 0 0 0 0 0 0 0 0 0 0 0 0 0 0 127 0"/>
<feOffset dy="8"/>
<feGaussianBlur stdDeviation="9"/>
<feColorMatrix type="matrix" values="0 0 0 0 0 0 0 0 0 0 0 0 0 0 0 0 0 0 0.12 0"/>
<feBlend mode="normal" in2="BackgroundImageFix" result="effect1_dropShadow"/>
<feBlend mode="normal" in="SourceGraphic" in2="effect1_dropShadow" result="shape"/>
</filter>
<linearGradient id="paint0_linear" x1="-278.64" y1="61.4255" x2="-120.291" y2="386.088" gradientUnits="userSpaceOnUse">
<stop stop-color="#09C6F9"/>
<stop offset="1" stop-color="#045DE9"/>
</linearGradient>
<linearGradient id="paint1_linear" x1="242" y1="25.5" x2="250.45" y2="60.9882" gradientUnits="userSpaceOnUse">
<stop stop-color="white"/>
<stop offset="1" stop-color="white" stop-opacity="0.64068"/>
</linearGradient>
</defs>
</svg>
