<svg width="24" height="24" viewBox="0 0 24 24" fill="none" xmlns="http://www.w3.org/2000/svg">
<path d="M22.8984 0H1.10156C0.494156 0 0 0.648738 0 1.44615V18.4396C0 18.6945 0.157406 18.9011 0.351562 18.9011C0.545719 18.9011 0.703125 18.6945 0.703125 18.4396V1.44615C0.703125 1.15772 0.881859 0.923077 1.10156 0.923077H22.8984C23.1181 0.923077 23.2969 1.15772 23.2969 1.44615V5.11206C23.2969 5.36702 23.4543 5.5736 23.6484 5.5736C23.8426 5.5736 24 5.36702 24 5.11206V1.44615C24 0.648738 23.5058 0 22.8984 0Z" fill="#A3A3A5"/>
<path d="M23.6484 6.80437C23.4543 6.80437 23.2969 7.01095 23.2969 7.26591V22.5538C23.2969 22.8423 23.1181 23.0769 22.8984 23.0769H1.10156C0.881859 23.0769 0.703125 22.8423 0.703125 22.5538V20.5934C0.703125 20.3385 0.545719 20.1319 0.351562 20.1319C0.157406 20.1319 0 20.3385 0 20.5934V22.5538C0 23.3513 0.494156 24 1.10156 24H22.8984C23.5058 24 24 23.3513 24 22.5538V7.26591C24 7.01101 23.8426 6.80437 23.6484 6.80437Z" fill="#A3A3A5"/>
<path d="M21.6328 21.7564C22.0335 21.7564 22.3594 21.3286 22.3594 20.8026V3.19742C22.3594 2.67145 22.0335 2.24358 21.6328 2.24358H2.36719C1.96655 2.24358 1.64062 2.67145 1.64062 3.19742V20.8026C1.64062 21.3286 1.96655 21.7564 2.36719 21.7564H21.6328ZM2.34375 20.8026V3.19742C2.34375 3.1805 2.35425 3.16665 2.36719 3.16665H21.6328C21.6458 3.16665 21.6562 3.1805 21.6562 3.19742V20.8026C21.6562 20.8195 21.6458 20.8334 21.6328 20.8334H2.36719C2.35425 20.8334 2.34375 20.8195 2.34375 20.8026Z" fill="#A3A3A5"/>
<path d="M15.0235 12.4769C15.1253 12.915 15.4777 13.1634 15.8134 13.0292L20.2187 11.2654C20.5524 11.1318 20.7411 10.6666 20.6394 10.2284C20.6394 10.2284 20.6394 10.2284 20.6394 10.2284L19.2958 4.4451C19.1939 4.00652 18.8412 3.75877 18.5059 3.89273L17.3318 4.36283C17.1294 3.97009 16.787 3.71138 16.3993 3.71138C15.7795 3.71138 15.2751 4.37304 15.2744 5.18658L14.1006 5.65655C13.7668 5.79021 13.5781 6.25538 13.6799 6.69353L15.0235 12.4769ZM16.3994 4.63458C16.5885 4.63458 16.7551 4.80043 16.8056 5.04209C16.8808 5.40387 16.6711 5.74227 16.3994 5.74227C16.1643 5.74227 15.9775 5.48904 15.9775 5.18843C15.9775 4.88301 16.1668 4.63458 16.3994 4.63458ZM15.4936 6.064C15.6966 6.42652 16.0269 6.66067 16.3894 6.66498C17.0051 6.67052 17.4955 6.03513 17.523 5.2579C17.5231 5.25569 17.5233 5.25347 17.5234 5.25126L18.6437 4.80264L19.9463 10.4093L15.6756 12.1193L14.373 6.51267L15.4936 6.064Z" fill="#A3A3A5"/>
<path d="M4.02905 14.2829H5.98027V18.5855C5.98027 19.0436 6.26415 19.4163 6.61308 19.4163H11.2186C11.5676 19.4163 11.8515 19.0436 11.8515 18.5855V12.5393C11.8515 12.0812 11.5676 11.7085 11.2186 11.7085H9.98429C9.87282 11.2649 9.60535 10.9137 9.26743 10.7674V7.40585C9.26743 6.94775 8.98355 6.57508 8.63461 6.57508H7.40026C7.25227 5.98609 6.82936 5.55969 6.33183 5.55969C5.8343 5.55969 5.4114 5.98609 5.26341 6.57508H4.02905C3.68012 6.57508 3.39624 6.94775 3.39624 7.40585V13.4521C3.39624 13.9102 3.68012 14.2829 4.02905 14.2829ZM9.98462 12.6316H11.1483V18.4932H6.6834V13.8214V12.6316H7.84712C7.99819 13.2326 8.42963 13.647 8.91586 13.647C9.40022 13.647 9.83265 13.2361 9.98462 12.6316ZM8.91586 11.6162C9.14846 11.6162 9.33774 11.8646 9.33774 12.17C9.33774 12.4754 9.14846 12.7239 8.91586 12.7239C8.67952 12.7239 8.49399 12.4687 8.49399 12.17C8.49399 11.8646 8.68322 11.6162 8.91586 11.6162ZM6.33183 6.48277C6.56443 6.48277 6.75371 6.7312 6.75371 7.03662C6.75371 7.34203 6.56443 7.59046 6.33183 7.59046C6.09924 7.59046 5.90996 7.34203 5.90996 7.03662C5.90996 6.7312 6.09919 6.48277 6.33183 6.48277ZM4.09937 7.49815H5.26308C5.26412 7.50228 5.26547 7.50622 5.26655 7.51034C5.42072 8.10622 5.84832 8.51354 6.33183 8.51354C6.81868 8.51354 7.24937 8.09975 7.40058 7.49815H8.5643V10.767C8.56004 10.7688 8.55591 10.7711 8.55169 10.773C8.22451 10.9204 7.96533 11.2585 7.85199 11.6907C7.85044 11.6967 7.84857 11.7025 7.84707 11.7085H6.61304C6.2641 11.7085 5.98022 12.0812 5.98022 12.5393V13.3598H4.09937V7.49815Z" fill="#A3A3A5"/>
</svg>
