<svg width="24" height="24" viewBox="0 0 24 24" fill="none" xmlns="http://www.w3.org/2000/svg">
<path fill-rule="evenodd" clip-rule="evenodd" d="M16.8 5.75999H11.04C10.7749 5.75999 10.56 5.9749 10.56 6.23999V10.08C10.56 10.3451 10.7749 10.56 11.04 10.56H16.8C17.0651 10.56 17.28 10.3451 17.28 10.08V6.23999C17.28 5.9749 17.0651 5.75999 16.8 5.75999ZM16.32 9.6H11.52V6.72H16.32V9.6Z" fill="#A3A3A5"/>
<path d="M11.52 9.6H11.27C11.27 9.73807 11.3819 9.85 11.52 9.85V9.6ZM16.32 9.6V9.85C16.4581 9.85 16.57 9.73807 16.57 9.6H16.32ZM11.52 6.72V6.47C11.3819 6.47 11.27 6.58192 11.27 6.72H11.52ZM16.32 6.72H16.57C16.57 6.58192 16.4581 6.47 16.32 6.47V6.72ZM11.04 6.00999H16.8V5.50999H11.04V6.00999ZM10.81 6.23999C10.81 6.11297 10.913 6.00999 11.04 6.00999V5.50999C10.6368 5.50999 10.31 5.83683 10.31 6.23999H10.81ZM10.81 10.08V6.23999H10.31V10.08H10.81ZM11.04 10.31C10.913 10.31 10.81 10.207 10.81 10.08H10.31C10.31 10.4832 10.6368 10.81 11.04 10.81V10.31ZM16.8 10.31H11.04V10.81H16.8V10.31ZM17.03 10.08C17.03 10.207 16.927 10.31 16.8 10.31V10.81C17.2032 10.81 17.53 10.4832 17.53 10.08H17.03ZM17.03 6.23999V10.08H17.53V6.23999H17.03ZM16.8 6.00999C16.927 6.00999 17.03 6.11297 17.03 6.23999H17.53C17.53 5.83683 17.2032 5.50999 16.8 5.50999V6.00999ZM11.52 9.85H16.32V9.35H11.52V9.85ZM11.27 6.72V9.6H11.77V6.72H11.27ZM16.32 6.47H11.52V6.97H16.32V6.47ZM16.57 9.6V6.72H16.07V9.6H16.57Z" fill="#A3A3A5"/>
<path fill-rule="evenodd" clip-rule="evenodd" d="M18.72 1.92H5.28003C4.48474 1.92 3.84003 2.56471 3.84003 3.36V18.72C3.84003 20.5757 5.34435 22.08 7.20003 22.08H16.8C18.6557 22.08 20.16 20.5757 20.16 18.72V3.36C20.16 2.56471 19.5153 1.92 18.72 1.92ZM7.68003 2.88H5.28003C5.01493 2.88 4.80003 3.0949 4.80003 3.36V18.72C4.80003 20.0455 5.87454 21.12 7.20003 21.12H7.68003V2.88ZM8.64003 2.88V21.12H16.8C18.1255 21.12 19.2 20.0455 19.2 18.72V3.36C19.2 3.0949 18.9851 2.88 18.72 2.88H8.64003Z" fill="#A3A3A5"/>
<path d="M7.68003 2.88H7.93003C7.93003 2.74193 7.8181 2.63 7.68003 2.63V2.88ZM7.68003 21.12V21.37C7.8181 21.37 7.93003 21.2581 7.93003 21.12H7.68003ZM8.64003 21.12H8.39003C8.39003 21.2581 8.50196 21.37 8.64003 21.37V21.12ZM8.64003 2.88V2.63C8.50196 2.63 8.39003 2.74193 8.39003 2.88H8.64003ZM5.28003 2.17H18.72V1.67H5.28003V2.17ZM4.09003 3.36C4.09003 2.70278 4.62281 2.17 5.28003 2.17V1.67C4.34667 1.67 3.59003 2.42664 3.59003 3.36H4.09003ZM4.09003 18.72V3.36H3.59003V18.72H4.09003ZM7.20003 21.83C5.48242 21.83 4.09003 20.4376 4.09003 18.72H3.59003C3.59003 20.7137 5.20628 22.33 7.20003 22.33V21.83ZM16.8 21.83H7.20003V22.33H16.8V21.83ZM19.91 18.72C19.91 20.4376 18.5176 21.83 16.8 21.83V22.33C18.7938 22.33 20.41 20.7137 20.41 18.72H19.91ZM19.91 3.36V18.72H20.41V3.36H19.91ZM18.72 2.17C19.3772 2.17 19.91 2.70278 19.91 3.36H20.41C20.41 2.42664 19.6534 1.67 18.72 1.67V2.17ZM5.28003 3.13H7.68003V2.63H5.28003V3.13ZM5.05003 3.36C5.05003 3.23297 5.153 3.13 5.28003 3.13V2.63C4.87686 2.63 4.55003 2.95683 4.55003 3.36H5.05003ZM5.05003 18.72V3.36H4.55003V18.72H5.05003ZM7.20003 20.87C6.01261 20.87 5.05003 19.9074 5.05003 18.72H4.55003C4.55003 20.1836 5.73647 21.37 7.20003 21.37V20.87ZM7.68003 20.87H7.20003V21.37H7.68003V20.87ZM7.43003 2.88V21.12H7.93003V2.88H7.43003ZM8.89003 21.12V2.88H8.39003V21.12H8.89003ZM16.8 20.87H8.64003V21.37H16.8V20.87ZM18.95 18.72C18.95 19.9074 17.9874 20.87 16.8 20.87V21.37C18.2636 21.37 19.45 20.1836 19.45 18.72H18.95ZM18.95 3.36V18.72H19.45V3.36H18.95ZM18.72 3.13C18.8471 3.13 18.95 3.23297 18.95 3.36H19.45C19.45 2.95683 19.1232 2.63 18.72 2.63V3.13ZM8.64003 3.13H18.72V2.63H8.64003V3.13Z" fill="#A3A3A5"/>
</svg>
